<svg width="479" height="379" viewBox="0 0 479 379" fill="none" xmlns="http://www.w3.org/2000/svg">
<rect x="0.579228" y="43.4703" width="247" height="340" rx="24.5" transform="rotate(-10 0.579228 43.4703)" fill="#D9D9D9" stroke="black"/>
<path d="M231.843 183.121L167.905 281.214L73.781 210.992C65.321 202.504 54.2374 190.774 48.3854 167.745C44.3103 142.811 54.0008 110.422 87.264 106.056C109.308 102.214 122.778 108.639 130.129 118.806C136.027 125.684 138.658 130.583 142.986 139.894C143.008 130.632 143.989 125.348 147.363 115.768C151.479 104.13 161.842 91.1115 185.252 88.7782C207.163 84.7214 237.178 103.117 241.9 133.623C244.275 150.594 239.833 165.345 231.843 183.121Z" fill="#FF5F5F" stroke="#FF0000"/>
<rect x="234.62" y="0.579228" width="247" height="340" rx="24.5" transform="rotate(10 234.62 0.579228)" fill="#D9D9D9" stroke="black"/>
<path d="M252.61 152.004L346.242 81.6945L410.672 179.874C415.718 190.744 422.122 205.557 419.744 229.199C415.046 254.023 394.862 281.144 362.112 273.87C344.115 271.296 338.556 266.728 330.063 254.003C324.272 270.952 331.297 280.82 339.975 301.445L275.963 290.158C290.502 274.46 303.102 265.935 303.848 249.38C295.474 256.47 282.636 261.314 264.123 256.592C242.147 252.91 220.234 225.359 226.23 195.077C229.803 178.318 239.022 165.975 252.61 152.004Z" fill="black"/>
<path d="M303.848 249.38C295.474 256.47 282.636 261.314 264.123 256.592C242.147 252.91 220.234 225.359 226.23 195.077C229.803 178.318 239.022 165.975 252.61 152.004L346.242 81.6945L410.672 179.874C415.718 190.744 422.122 205.557 419.744 229.199C415.046 254.023 394.862 281.144 362.112 273.87C344.115 271.296 338.556 266.728 330.063 254.003M303.848 249.38C305.785 247.74 307.484 245.979 308.958 244.189C315.406 236.341 318.135 231.71 321.323 223.014C322.206 233.244 323.003 238.748 326.192 247.228C327.155 248.712 329.159 252.648 330.063 254.003M303.848 249.38C303.102 265.935 290.502 274.46 275.963 290.158L339.975 301.445C331.297 280.82 324.272 270.952 330.063 254.003" stroke="black"/>
</svg>
