<svg width="101" height="88" viewBox="0 0 101 88" fill="none" xmlns="http://www.w3.org/2000/svg">
<rect x="1.13668" y="0.794116" width="50.1423" height="72.7864" rx="4" transform="matrix(0.981224 -0.193896 0.155453 0.988012 -0.102105 12.3401)" fill="#D9D9D9" stroke="black" stroke-width="2"/>
<path d="M48.1053 42.4092L34.5605 64.1353L15.102 48.9337C13.3579 47.0889 11.0743 44.5381 9.90633 39.4898C9.11294 34.0184 11.2051 26.8736 18.1471 25.8302C22.7497 24.93 25.5426 26.3088 27.0519 28.5255C28.2655 30.0227 28.8029 31.0932 29.6841 33.1293C29.7094 31.093 29.9257 29.9287 30.6504 27.8141C31.5342 25.2453 33.7231 22.3572 38.6071 21.7854C43.1824 20.8384 49.3965 24.8072 50.3123 31.5019C50.7692 35.2269 49.8104 38.481 48.1053 42.4092Z" fill="#FF5F5F" stroke="#FF0000" stroke-width="5"/>
<rect x="-0.825771" y="-1.18191" width="54.1423" height="76.7864" rx="6" transform="matrix(0.981224 0.193896 -0.155453 0.988012 47.6374 2.14594)" fill="#D9D9D9" stroke="black" stroke-width="2"/>
<path d="M52.0573 35.5703L71.4374 20.3291L85.1022 42.1031C86.1797 44.5085 87.5491 47.7853 87.1061 52.9836C86.1813 58.4361 82.0306 64.3553 75.1803 62.6717C71.4193 62.0598 70.2489 61.0404 68.4482 58.2178C67.2777 61.9341 68.7658 64.1241 70.623 68.686L57.2404 66.0403C60.239 62.6214 62.8491 60.7765 62.9675 57.1343C61.2361 58.6739 58.5682 59.7078 54.6946 58.6218C50.1005 57.7561 45.4661 51.6361 46.6493 44.9855C47.3572 41.3053 49.2533 38.6117 52.0573 35.5703Z" fill="black"/>
<path d="M62.9675 57.1343C61.2361 58.6739 58.5682 59.7078 54.6946 58.6218C50.1005 57.7561 45.4661 51.6361 46.6493 44.9855C47.3572 41.3053 49.2533 38.6117 52.0573 35.5703L71.4374 20.3291L85.1022 42.1031C86.1797 44.5084 87.5491 47.7853 87.1061 52.9836C86.1813 58.4361 82.0306 64.3553 75.1803 62.6717C71.4193 62.0598 70.2489 61.0404 68.4482 58.2178M62.9675 57.1343C63.3681 56.7781 63.7186 56.3948 64.0223 56.0044C65.35 54.2931 65.9091 53.2807 66.5549 51.3745C66.7621 53.6285 66.9407 54.8421 67.6253 56.7167C67.8294 57.0458 68.2565 57.9173 68.4482 58.2178M62.9675 57.1343C62.8491 60.7765 60.239 62.6214 57.2404 66.0403L70.623 68.686C68.7658 64.1241 67.2777 61.9341 68.4482 58.2178" stroke="black"/>
</svg>
