<svg width="222" height="177" viewBox="0 0 222 177" fill="none" xmlns="http://www.w3.org/2000/svg">
<rect x="2.90564" y="2.03442" width="109.245" height="150.984" rx="22.5" transform="matrix(0.985369 -0.170467 0.176887 0.984236 -0.31735 22.0025)" fill="#D9D9D9" stroke="black" stroke-width="5"/>
<path d="M107.04 85.6775L77.6274 130.474L34.1437 98.2872C30.2334 94.3992 25.11 89.0266 22.3904 78.4919C20.4889 67.088 24.9316 52.2873 40.2736 50.3191C50.4399 48.5808 56.6598 51.5301 60.0601 56.1851C62.7868 59.3347 64.0049 61.5771 66.0098 65.8379C66.0119 61.6031 66.4598 59.1876 68.0083 54.8102C69.897 49.4926 74.6667 43.549 85.4647 42.5019C95.5694 40.6655 109.432 49.1018 111.637 63.0539C112.747 70.8155 110.711 77.5564 107.04 85.6775Z" fill="#FF5F5F" stroke="#FF0000" stroke-width="5"/>
<rect x="-2.0212" y="-2.88676" width="119.245" height="160.984" rx="27.5" transform="matrix(0.985369 0.170467 -0.176887 0.984236 107.886 2.29904)" fill="#D9D9D9" stroke="black" stroke-width="5"/>
<path d="M116.765 71.449L160.012 39.2291L189.646 84.056C191.964 89.0205 194.905 95.7867 193.788 106.596C191.599 117.948 182.267 130.363 167.167 127.066C158.869 125.904 156.308 123.821 152.402 118.011C149.716 125.763 152.948 130.269 156.933 139.69L127.418 134.584C134.137 127.396 139.956 123.488 140.314 115.92C136.446 119.168 130.52 121.393 121.986 119.25C111.852 117.586 101.769 105.009 104.56 91.1616C106.223 83.4972 110.486 77.8473 116.765 71.449Z" fill="black"/>
<path d="M140.314 115.92C136.446 119.168 130.52 121.393 121.986 119.25C111.852 117.586 101.769 105.009 104.56 91.1616C106.223 83.4972 110.486 77.8473 116.765 71.449L160.012 39.2291L189.646 84.056C191.964 89.0205 194.905 95.7867 193.788 106.596C191.599 117.948 182.267 130.363 167.167 127.066C158.869 125.904 156.308 123.821 152.402 118.011M140.314 115.92C141.209 115.168 141.994 114.362 142.676 113.542C145.657 109.949 146.919 107.83 148.397 103.852C148.796 108.528 149.159 111.043 150.622 114.917C151.065 115.595 151.986 117.392 152.402 118.011M140.314 115.92C139.956 123.488 134.137 127.396 127.418 134.584L156.933 139.69C152.948 130.269 149.716 125.763 152.402 118.011" stroke="black"/>
</svg>
